<svg width="267" height="48" viewBox="0 0 267 48" fill="none" xmlns="http://www.w3.org/2000/svg">
<path d="M14.3507 16.6419C16.3455 16.6419 18.3402 16.6419 20.3222 16.6419C20.481 16.6259 20.641 16.6588 20.7805 16.7364C20.92 16.814 21.0323 16.9324 21.1021 17.0757L23.9408 21.9108C24.0047 22.0128 24.0303 22.1532 24.171 22.1659C24.3116 22.1787 24.35 22.0256 24.4139 21.9235C25.3602 20.2906 26.3021 18.6491 27.2398 16.9991C27.3022 16.8816 27.3998 16.7864 27.519 16.7269C27.6382 16.6675 27.7731 16.6467 27.9047 16.6674H40.0522C40.5125 16.6674 40.5637 16.7695 40.3335 17.165L35.986 24.6791C35.4234 25.636 34.8607 26.6055 34.3109 27.5751C34.1063 27.9323 33.9017 28.0089 33.4158 28.0599C32.9299 28.1109 32.4952 28.0599 31.8942 28.0599C31.728 28.0599 31.5362 28.0599 31.4467 27.9578C31.3572 27.8558 31.4467 27.6516 31.5362 27.5113C33.028 24.9598 34.5155 22.4083 35.9988 19.8568C36.4463 19.0658 36.4463 19.0658 35.5001 19.0658C33.4158 19.0658 31.3316 19.0658 29.2473 19.0658C29.0906 19.0525 28.9337 19.0884 28.7984 19.1685C28.6631 19.2485 28.5563 19.3688 28.4929 19.5124C27.5595 21.1581 26.6005 22.791 25.6415 24.424C25.5699 24.5174 25.5311 24.6317 25.5311 24.7493C25.5311 24.8669 25.5699 24.9812 25.6415 25.0746L30.4749 33.2267C30.5685 33.3568 30.6189 33.513 30.6189 33.6732C30.6189 33.8334 30.5685 33.9896 30.4749 34.1197L24.4779 44.4915C24.4779 44.4915 24.4139 44.6191 24.3756 44.6701C24.1582 44.9891 24.0431 44.9891 23.8641 44.6701C23.3654 43.8409 22.8923 43.0117 22.4064 42.1186L18.5704 35.472C18.289 34.9617 18.0077 34.4514 17.7009 33.9666C17.6255 33.8579 17.5852 33.7288 17.5852 33.5966C17.5852 33.4645 17.6255 33.3354 17.7009 33.2267C18.5959 31.7085 19.4782 30.1904 20.3605 28.6722C21.0766 27.3965 21.7926 26.1845 22.5215 24.9598C22.5929 24.8543 22.6311 24.7299 22.6311 24.6026C22.6311 24.4753 22.5929 24.3509 22.5215 24.2454C21.5497 22.5444 20.5864 20.8689 19.6317 19.2189C19.581 19.1256 19.5049 19.0484 19.4121 18.9965C19.3193 18.9446 19.2137 18.92 19.1074 18.9255H12.177C11.8061 18.9255 11.7678 19.0021 11.9468 19.3337C13.4556 21.8852 14.956 24.4708 16.4478 27.0903C16.5884 27.3199 16.8314 27.5879 16.7546 27.8302C16.6779 28.0726 16.2304 27.9323 15.9619 27.9323C15.5015 27.9323 15.054 27.9323 14.5937 27.9323C14.4671 27.9418 14.3407 27.9127 14.2311 27.8489C14.1215 27.7851 14.0339 27.6896 13.9799 27.5751C12.1258 24.3474 10.2589 21.1963 8.40485 17.9177C8.23863 17.637 8.05961 17.3436 7.90617 17.0502C7.75273 16.7567 7.75273 16.5781 8.18748 16.5781C9.64517 16.5781 11.1157 16.5781 12.5861 16.5781H14.3507V16.6419ZM20.3477 33.7625C20.3892 33.9362 20.4629 34.1006 20.5651 34.2473L21.9589 36.6457C22.611 37.7683 23.2375 38.891 23.9152 40.0137C24.0559 40.2688 24.171 40.3198 24.3116 40.0137C24.3116 39.9244 24.4139 39.8478 24.4523 39.7713C25.5392 37.9087 26.6005 36.0588 27.6873 34.209C27.7958 34.0714 27.862 33.9054 27.8779 33.7311C27.8938 33.5567 27.8587 33.3815 27.7769 33.2267C26.7283 31.4661 25.7182 29.6801 24.6824 27.9195C24.1966 27.0776 24.171 27.0903 23.6851 27.9195L20.4756 33.3542C20.3843 33.4799 20.3392 33.6331 20.3477 33.788V33.7625Z" fill="#E5E5E5"/>
<path d="M29.6213 6.25761V12.6364L29.2505 12.8277L25.7213 14.8689C25.1912 15.1429 24.6787 15.4497 24.1869 15.7875H24.0718C24.0013 15.7062 23.9141 15.6409 23.8161 15.5961L21.7702 14.4224L18.6375 12.6364V6.25761C18.7907 6.18447 18.94 6.10357 19.085 6.01522L22.6653 3.97402C23.1685 3.71742 23.6515 3.42316 24.1102 3.09375H24.2253C24.3003 3.17562 24.3918 3.24082 24.4938 3.28511L26.5013 4.47156L29.6213 6.25761ZM27.8439 9.45974C27.8439 8.83462 27.8439 8.18399 27.8439 7.60991C27.8535 7.51645 27.8341 7.42231 27.7884 7.34018C27.7427 7.25806 27.6728 7.1919 27.5882 7.15064L24.4171 5.31355C24.3317 5.25135 24.2287 5.21782 24.123 5.21782C24.0173 5.21782 23.9143 5.25135 23.8289 5.31355C22.7932 5.92591 21.7319 6.5893 20.6833 7.12512C20.602 7.17024 20.535 7.23717 20.4898 7.31833C20.4446 7.39949 20.423 7.49165 20.4276 7.58439V11.2841C20.4224 11.3752 20.4438 11.4659 20.4892 11.5451C20.5346 11.6244 20.602 11.6888 20.6833 11.7306C21.7446 12.3302 22.7932 12.9425 23.8417 13.5549C23.9258 13.6142 24.0263 13.6461 24.1294 13.6461C24.2324 13.6461 24.3329 13.6142 24.4171 13.5549L27.5882 11.7306C27.6716 11.6845 27.74 11.6156 27.7853 11.5319C27.8307 11.4482 27.851 11.3534 27.8439 11.2585C27.78 10.6717 27.8439 10.0593 27.8439 9.45974Z" fill="#E5E5E5"/>
<path d="M14.0978 16.4131H20.1076C20.2676 16.4 20.4279 16.4356 20.5672 16.5154C20.7065 16.5951 20.8182 16.7152 20.8876 16.8597L23.6751 21.6565C23.6751 21.7585 23.7518 21.9116 23.9053 21.9116C24.0587 21.9116 24.0843 21.7713 24.1354 21.6692C25.0816 20.0363 26.0236 18.3991 26.9613 16.7576C27.0217 16.6377 27.1185 16.5399 27.2379 16.478C27.3573 16.4162 27.4932 16.3935 27.6262 16.4131H39.8376C40.2979 16.4131 40.3619 16.5152 40.1317 16.9107L35.7714 24.4249C35.2088 25.3944 34.6462 26.3512 34.0963 27.3208C33.8918 27.6908 33.6872 27.7546 33.2013 27.8056C32.7154 27.8566 32.2806 27.8056 31.6796 27.8056C31.5262 27.8056 31.3216 27.8056 31.2321 27.7035C31.1426 27.6015 31.2321 27.3973 31.3344 27.257C32.8177 24.7055 34.3052 22.154 35.797 19.6025C36.2445 18.8115 36.2445 18.8116 35.2983 18.8116H29.0583C28.8984 18.7984 28.7383 18.8357 28.6007 18.9181C28.4631 19.0004 28.3548 19.1238 28.2911 19.2708C27.3534 20.9123 26.403 22.5452 25.4397 24.1697C25.3709 24.2667 25.3339 24.3826 25.3339 24.5014C25.3339 24.6202 25.3709 24.7361 25.4397 24.8331C27.0508 27.576 28.6364 30.3188 30.2475 33.0617C30.3344 33.1945 30.3807 33.3496 30.3807 33.5082C30.3807 33.6668 30.3344 33.8219 30.2475 33.9547L24.2377 44.3393L24.1354 44.5052C23.9308 44.8241 23.803 44.8369 23.624 44.5052L22.1663 41.9537L18.3302 35.307C18.0489 34.8095 17.7804 34.2992 17.4735 33.8016C17.3926 33.6952 17.3488 33.5652 17.3488 33.4316C17.3488 33.2981 17.3926 33.1681 17.4735 33.0617L20.1076 28.5073C20.8364 27.2315 21.5397 26.0195 22.2686 24.7821C22.3435 24.678 22.3838 24.553 22.3838 24.4249C22.3838 24.2967 22.3435 24.1717 22.2686 24.0676L19.3787 19.0539C19.3325 18.9561 19.2577 18.8744 19.1642 18.8198C19.0706 18.7651 18.9626 18.74 18.8545 18.7478H11.9112C11.5404 18.7478 11.5021 18.8243 11.6939 19.156L16.1948 26.9126C16.3227 27.155 16.5656 27.4229 16.4889 27.6525C16.4122 27.8821 15.9774 27.7546 15.6961 27.7673C15.4148 27.7801 14.7883 27.7673 14.328 27.7673C14.2011 27.7786 14.074 27.7503 13.964 27.6863C13.854 27.6223 13.7667 27.5258 13.7142 27.4101C11.8644 24.1952 10.006 20.9803 8.13914 17.7654L7.64045 16.8852C7.43587 16.528 7.4998 16.4131 7.92176 16.4131H14.0978ZM20.1076 33.521C20.1452 33.696 20.2192 33.8611 20.325 34.0057L21.7187 36.4041C22.3836 37.5268 23.0358 38.6495 23.6751 39.7721C23.8285 40.0273 23.9308 40.0783 24.0715 39.7721L24.1994 39.6063C25.2223 37.6927 26.3348 35.779 27.4216 33.9802C27.524 33.8344 27.5789 33.6607 27.5789 33.4827C27.5789 33.3047 27.524 33.131 27.4216 32.9851C26.3731 31.2118 25.363 29.4385 24.3272 27.6653C23.8413 26.836 23.8158 26.836 23.3426 27.6653C22.2771 29.4683 21.2243 31.2756 20.1843 33.0872C20.1127 33.2198 20.0858 33.3719 20.1076 33.521Z" fill="#E5E5E5"/>
<path d="M29.3632 5.99199V12.3707C29.2358 12.4268 29.1119 12.4907 28.9924 12.5621L25.4505 14.6033C24.9272 14.8822 24.4193 15.1888 23.9288 15.5218H23.801C23.7271 15.4442 23.6406 15.3795 23.5452 15.3305C22.8675 14.935 22.1898 14.5395 21.4993 14.1568L18.3666 12.3707V5.99199L18.8269 5.76235L22.3688 3.70839C22.8721 3.4518 23.3551 3.15753 23.8138 2.82812H23.9416C24.0117 2.91318 24.0988 2.98271 24.1974 3.03224L26.2432 4.20594L29.3632 5.99199ZM27.5731 9.19412C27.5731 8.58176 27.5731 7.91837 27.5731 7.34428C27.5826 7.25082 27.5633 7.15668 27.5175 7.07456C27.4718 6.99243 27.4019 6.92628 27.3173 6.88501C26.256 6.27265 25.1947 5.67305 24.1462 5.04793C24.0621 4.98862 23.9615 4.95678 23.8585 4.95678C23.7555 4.95678 23.655 4.98862 23.5708 5.04793L20.4125 6.87225C20.3311 6.91737 20.2641 6.9843 20.2189 7.06546C20.1737 7.14663 20.1522 7.23879 20.1567 7.33152V11.0312C20.1518 11.1255 20.1745 11.2192 20.2223 11.3008C20.27 11.3824 20.3405 11.4483 20.4253 11.4905L23.5708 13.302C23.655 13.3613 23.7555 13.3932 23.8585 13.3932C23.9615 13.3932 24.0621 13.3613 24.1462 13.302L27.3301 11.5415C27.4111 11.4937 27.4769 11.424 27.5199 11.3405C27.5629 11.257 27.5813 11.163 27.5731 11.0695V9.19412Z" fill="#E5E5E5"/>
<path d="M65.83 28.216C64.534 28.216 63.286 28.048 62.086 27.712C60.902 27.36 59.918 26.872 59.134 26.248L60.334 23.56C61.982 24.712 63.822 25.288 65.854 25.288C66.942 25.288 67.774 25.12 68.35 24.784C68.942 24.432 69.238 23.944 69.238 23.32C69.238 22.776 68.966 22.352 68.422 22.048C67.894 21.728 66.958 21.424 65.614 21.136C64.11 20.832 62.91 20.464 62.014 20.032C61.134 19.584 60.486 19.048 60.07 18.424C59.67 17.784 59.47 16.992 59.47 16.048C59.47 15.024 59.75 14.104 60.31 13.288C60.886 12.472 61.686 11.84 62.71 11.392C63.734 10.928 64.918 10.696 66.262 10.696C67.478 10.696 68.646 10.872 69.766 11.224C70.886 11.576 71.782 12.056 72.454 12.664L71.254 15.352C69.75 14.2 68.094 13.624 66.286 13.624C65.326 13.624 64.558 13.816 63.982 14.2C63.406 14.584 63.118 15.104 63.118 15.76C63.118 16.144 63.222 16.464 63.43 16.72C63.654 16.976 64.022 17.208 64.534 17.416C65.046 17.608 65.774 17.8 66.718 17.992C68.91 18.472 70.486 19.096 71.446 19.864C72.422 20.632 72.91 21.68 72.91 23.008C72.91 24.608 72.286 25.88 71.038 26.824C69.79 27.752 68.054 28.216 65.83 28.216ZM87.9794 15.832V28H84.4034V26.2C84.0354 26.824 83.5154 27.312 82.8434 27.664C82.1714 28.016 81.4114 28.192 80.5634 28.192C79.5074 28.192 78.5714 27.936 77.7554 27.424C76.9554 26.912 76.3234 26.184 75.8594 25.24C75.4114 24.28 75.1874 23.176 75.1874 21.928C75.1874 20.68 75.4114 19.568 75.8594 18.592C76.3234 17.616 76.9634 16.864 77.7794 16.336C78.5954 15.792 79.5234 15.52 80.5634 15.52C81.4114 15.52 82.1714 15.704 82.8434 16.072C83.5154 16.44 84.0354 16.936 84.4034 17.56V15.832H87.9794ZM81.6194 25.432C82.5154 25.432 83.2034 25.128 83.6834 24.52C84.1634 23.912 84.4034 23.032 84.4034 21.88C84.4034 20.728 84.1634 19.848 83.6834 19.24C83.2034 18.616 82.5154 18.304 81.6194 18.304C80.7234 18.304 80.0274 18.624 79.5314 19.264C79.0354 19.904 78.7874 20.792 78.7874 21.928C78.7874 23.064 79.0274 23.936 79.5074 24.544C80.0034 25.136 80.7074 25.432 81.6194 25.432ZM98.7446 15.52C99.7846 15.52 100.713 15.792 101.529 16.336C102.345 16.864 102.977 17.616 103.425 18.592C103.889 19.568 104.121 20.68 104.121 21.928C104.121 23.176 103.897 24.28 103.449 25.24C103.001 26.184 102.369 26.912 101.553 27.424C100.737 27.936 99.8006 28.192 98.7446 28.192C97.8966 28.192 97.1366 28.016 96.4646 27.664C95.7926 27.312 95.2806 26.824 94.9286 26.2V33.184H91.3046V19.312C91.3046 18.016 91.2406 16.856 91.1126 15.832H94.5206L94.7606 17.848C95.0806 17.128 95.5926 16.56 96.2966 16.144C97.0166 15.728 97.8326 15.52 98.7446 15.52ZM97.7126 25.432C98.6086 25.432 99.2966 25.136 99.7766 24.544C100.257 23.936 100.497 23.064 100.497 21.928C100.497 20.792 100.249 19.904 99.7526 19.264C99.2726 18.624 98.5926 18.304 97.7126 18.304C96.8166 18.304 96.1206 18.616 95.6246 19.24C95.1446 19.848 94.9046 20.728 94.9046 21.88C94.9046 23.032 95.1446 23.912 95.6246 24.52C96.1206 25.128 96.8166 25.432 97.7126 25.432ZM106.845 15.832H110.469V28H106.845V15.832ZM110.589 10.12V13.528H106.725V10.12H110.589ZM124.751 22.216H116.735C116.799 23.352 117.095 24.184 117.623 24.712C118.151 25.224 118.935 25.48 119.975 25.48C120.599 25.48 121.223 25.376 121.847 25.168C122.471 24.96 123.047 24.656 123.575 24.256L124.535 26.704C123.959 27.168 123.239 27.536 122.375 27.808C121.527 28.064 120.671 28.192 119.807 28.192C117.759 28.192 116.151 27.632 114.983 26.512C113.815 25.376 113.231 23.832 113.231 21.88C113.231 20.648 113.479 19.552 113.975 18.592C114.487 17.616 115.199 16.864 116.111 16.336C117.023 15.792 118.055 15.52 119.207 15.52C120.919 15.52 122.271 16.08 123.263 17.2C124.255 18.304 124.751 19.8 124.751 21.688V22.216ZM119.303 18.064C118.615 18.064 118.055 18.264 117.623 18.664C117.207 19.064 116.935 19.648 116.807 20.416H121.631C121.439 18.848 120.663 18.064 119.303 18.064ZM134.939 15.52C137.819 15.52 139.259 17.224 139.259 20.632V28H135.635V20.8C135.635 19.952 135.475 19.336 135.155 18.952C134.851 18.552 134.363 18.352 133.691 18.352C132.891 18.352 132.251 18.608 131.771 19.12C131.291 19.632 131.051 20.32 131.051 21.184V28H127.427V19.312C127.427 18.016 127.363 16.856 127.235 15.832H130.643L130.883 17.752C131.315 17.032 131.875 16.48 132.563 16.096C133.267 15.712 134.059 15.52 134.939 15.52ZM155.911 28.216C154.615 28.216 153.367 28.048 152.167 27.712C150.983 27.36 149.999 26.872 149.215 26.248L150.415 23.56C152.063 24.712 153.903 25.288 155.935 25.288C157.023 25.288 157.855 25.12 158.431 24.784C159.023 24.432 159.319 23.944 159.319 23.32C159.319 22.776 159.047 22.352 158.503 22.048C157.975 21.728 157.039 21.424 155.695 21.136C154.191 20.832 152.991 20.464 152.095 20.032C151.215 19.584 150.567 19.048 150.151 18.424C149.751 17.784 149.551 16.992 149.551 16.048C149.551 15.024 149.831 14.104 150.391 13.288C150.967 12.472 151.767 11.84 152.791 11.392C153.815 10.928 154.999 10.696 156.343 10.696C157.559 10.696 158.727 10.872 159.847 11.224C160.967 11.576 161.863 12.056 162.535 12.664L161.335 15.352C159.831 14.2 158.175 13.624 156.367 13.624C155.407 13.624 154.639 13.816 154.063 14.2C153.487 14.584 153.199 15.104 153.199 15.76C153.199 16.144 153.303 16.464 153.511 16.72C153.735 16.976 154.103 17.208 154.615 17.416C155.127 17.608 155.855 17.8 156.799 17.992C158.991 18.472 160.567 19.096 161.527 19.864C162.503 20.632 162.991 21.68 162.991 23.008C162.991 24.608 162.367 25.88 161.119 26.824C159.871 27.752 158.135 28.216 155.911 28.216ZM177.634 15.832L172.018 28.648C171.33 30.2 170.458 31.336 169.402 32.056C168.362 32.792 167.082 33.264 165.562 33.472L164.722 30.688C165.842 30.448 166.682 30.144 167.242 29.776C167.818 29.408 168.266 28.872 168.586 28.168L168.946 27.376L163.93 15.832H167.722L170.842 23.728L174.058 15.832H177.634ZM183.768 28.192C181.464 28.192 179.648 27.696 178.32 26.704L179.28 24.184C179.92 24.648 180.632 25.008 181.416 25.264C182.2 25.504 183 25.624 183.816 25.624C184.44 25.624 184.92 25.528 185.256 25.336C185.592 25.144 185.76 24.864 185.76 24.496C185.76 24.192 185.64 23.952 185.4 23.776C185.16 23.6 184.736 23.448 184.128 23.32L182.136 22.864C180.968 22.608 180.104 22.2 179.544 21.64C179 21.08 178.728 20.336 178.728 19.408C178.728 18.656 178.944 17.984 179.376 17.392C179.824 16.8 180.44 16.344 181.224 16.024C182.008 15.688 182.912 15.52 183.936 15.52C184.8 15.52 185.648 15.656 186.48 15.928C187.312 16.184 188.056 16.552 188.712 17.032L187.704 19.456C187.08 19.024 186.44 18.696 185.784 18.472C185.144 18.248 184.52 18.136 183.912 18.136C183.32 18.136 182.856 18.24 182.52 18.448C182.184 18.656 182.016 18.944 182.016 19.312C182.016 19.584 182.112 19.808 182.304 19.984C182.512 20.144 182.872 20.28 183.384 20.392L185.424 20.848C186.672 21.136 187.576 21.568 188.136 22.144C188.696 22.72 188.976 23.488 188.976 24.448C188.976 25.6 188.512 26.512 187.584 27.184C186.656 27.856 185.384 28.192 183.768 28.192ZM196.026 18.544V23.272C196.026 23.944 196.202 24.44 196.554 24.76C196.906 25.064 197.362 25.216 197.922 25.216C198.274 25.216 198.674 25.16 199.122 25.048V27.856C198.546 28.08 197.85 28.192 197.034 28.192C195.53 28.192 194.378 27.768 193.578 26.92C192.794 26.072 192.402 24.88 192.402 23.344V18.544H190.098V15.832H192.402V12.976L196.026 11.8V15.832H199.122V18.544H196.026ZM212.301 22.216H204.285C204.349 23.352 204.645 24.184 205.173 24.712C205.701 25.224 206.485 25.48 207.525 25.48C208.149 25.48 208.773 25.376 209.397 25.168C210.021 24.96 210.597 24.656 211.125 24.256L212.085 26.704C211.509 27.168 210.789 27.536 209.925 27.808C209.077 28.064 208.221 28.192 207.357 28.192C205.309 28.192 203.701 27.632 202.533 26.512C201.365 25.376 200.781 23.832 200.781 21.88C200.781 20.648 201.029 19.552 201.525 18.592C202.037 17.616 202.749 16.864 203.661 16.336C204.573 15.792 205.605 15.52 206.757 15.52C208.469 15.52 209.821 16.08 210.813 17.2C211.805 18.304 212.301 19.8 212.301 21.688V22.216ZM206.853 18.064C206.165 18.064 205.605 18.264 205.173 18.664C204.757 19.064 204.485 19.648 204.357 20.416H209.181C208.989 18.848 208.213 18.064 206.853 18.064ZM229.857 15.52C231.249 15.52 232.281 15.944 232.953 16.792C233.641 17.624 233.985 18.904 233.985 20.632V28H230.361V20.752C230.361 19.904 230.225 19.296 229.953 18.928C229.681 18.544 229.233 18.352 228.609 18.352C227.873 18.352 227.305 18.608 226.905 19.12C226.505 19.632 226.305 20.352 226.305 21.28V28H222.681V20.752C222.681 19.92 222.537 19.312 222.249 18.928C221.977 18.544 221.537 18.352 220.929 18.352C220.193 18.352 219.617 18.608 219.201 19.12C218.801 19.632 218.601 20.352 218.601 21.28V28H214.977V19.312C214.977 18.016 214.913 16.856 214.785 15.832H218.193L218.409 17.656C218.777 16.968 219.289 16.44 219.945 16.072C220.617 15.704 221.385 15.52 222.249 15.52C224.057 15.52 225.257 16.272 225.849 17.776C226.249 17.088 226.801 16.544 227.505 16.144C228.225 15.728 229.009 15.52 229.857 15.52ZM241.9 28.192C239.596 28.192 237.78 27.696 236.452 26.704L237.412 24.184C238.052 24.648 238.764 25.008 239.548 25.264C240.332 25.504 241.132 25.624 241.948 25.624C242.572 25.624 243.052 25.528 243.388 25.336C243.724 25.144 243.892 24.864 243.892 24.496C243.892 24.192 243.772 23.952 243.532 23.776C243.292 23.6 242.868 23.448 242.26 23.32L240.268 22.864C239.1 22.608 238.236 22.2 237.676 21.64C237.132 21.08 236.86 20.336 236.86 19.408C236.86 18.656 237.076 17.984 237.508 17.392C237.956 16.8 238.572 16.344 239.356 16.024C240.14 15.688 241.044 15.52 242.068 15.52C242.932 15.52 243.78 15.656 244.612 15.928C245.444 16.184 246.188 16.552 246.844 17.032L245.836 19.456C245.212 19.024 244.572 18.696 243.916 18.472C243.276 18.248 242.652 18.136 242.044 18.136C241.452 18.136 240.988 18.24 240.652 18.448C240.316 18.656 240.148 18.944 240.148 19.312C240.148 19.584 240.244 19.808 240.436 19.984C240.644 20.144 241.004 20.28 241.516 20.392L243.556 20.848C244.804 21.136 245.708 21.568 246.268 22.144C246.828 22.72 247.108 23.488 247.108 24.448C247.108 25.6 246.644 26.512 245.716 27.184C244.788 27.856 243.516 28.192 241.9 28.192Z" fill="#E5E5E5"/>
<path d="M238.695 40.216C239.232 40.372 239.644 40.645 239.93 41.035C240.225 41.425 240.372 41.906 240.372 42.478C240.372 43.2667 240.09 43.8863 239.527 44.337C238.972 44.779 238.197 45 237.2 45H233.001V35.744H237.07C238.023 35.744 238.773 35.9607 239.319 36.394C239.865 36.8187 240.138 37.408 240.138 38.162C240.138 38.6473 240.008 39.072 239.748 39.436C239.497 39.7913 239.146 40.0513 238.695 40.216ZM234.639 39.644H236.797C237.958 39.644 238.539 39.2107 238.539 38.344C238.539 37.9107 238.396 37.5857 238.11 37.369C237.824 37.1523 237.386 37.044 236.797 37.044H234.639V39.644ZM237.018 43.7C237.625 43.7 238.067 43.5917 238.344 43.375C238.63 43.1583 238.773 42.816 238.773 42.348C238.773 41.8713 238.63 41.5203 238.344 41.295C238.067 41.0697 237.625 40.957 237.018 40.957H234.639V43.7H237.018ZM242.377 35.744H248.565V37.07H244.015V39.631H248.292V40.957H244.015V43.674H248.565V45H242.377V35.744ZM252.692 37.122H249.676V35.744H257.411V37.122H254.382V45H252.692V37.122ZM263.976 42.829H259.452L258.516 45H256.826L261.012 35.744H262.377L266.576 45H264.899L263.976 42.829ZM263.417 41.529L261.714 37.564L260.011 41.529H263.417Z" fill="#E5E5E5"/>
</svg>
